<svg xmlns="http://www.w3.org/2000/svg" height="384" width="336"><g transform="matrix(1.33333 0 0 -1.33333 0 384)"><path d="M190.85 177.208l-47.812 38.707h47.812zM79.277 215.915h29.757L61.15 177.472v38.443zm-18.126 12v28.723h33.626c-8.104-7.295-13.64-17.379-15.102-28.723zm30.645 0c2.849 16.297 17.103 28.723 34.204 28.723 17.102 0 31.356-12.426 34.205-28.723zm40.463-28.845l57.109-99.976-57.283-57.28zm-12 .555l-.174-157.983L62.638 99.09zm-59.108-37.542l44.014 35.336-44.014-76.793zm129.699-41.39l-43.648 76.412 43.648-35.336zm-18.524 107.222c-1.462 11.345-6.997 21.429-15.102 28.724h33.626v-28.723zM49.15 269.244V95.608L126 18.758l76.85 76.85V269.243z"/></g></svg>
